<svg width="512" height="512" viewBox="0 0 512 512" fill="none" xmlns="http://www.w3.org/2000/svg">
<rect width="512" height="512" fill="#ADF2C7"/>
<path d="M170 416C148.933 416 131 408.6 116.2 393.8C101.4 379 94 361.067 94 340C94 324.8 97.9333 311.2 105.8 299.2C113.667 287.2 124 278.133 136.8 272H96V240H192V336H160V297.2C150.133 299.333 142 304.4 135.6 312.4C129.2 320.4 126 329.6 126 340C126 352.267 130.333 362.667 139 371.2C147.667 379.733 158 384 170 384V416ZM176 208H336V176H176V208ZM224 400V336H288V304H224V272H336V240H224V208H112V144C112 135.2 115.133 127.667 121.4 121.4C127.667 115.133 135.2 112 144 112H368C376.8 112 384.333 115.133 390.6 121.4C396.867 127.667 400 135.2 400 144V368C400 376.8 396.867 384.333 390.6 390.6C384.333 396.867 376.8 400 368 400H224Z" fill="#002111"/>
</svg>
